<?xml version="1.0" encoding="UTF-8"?>
<svg xmlns="http://www.w3.org/2000/svg" width="84" height="84" viewBox="0 0 84 84" fill="none">
  <path d="M61.46 16.8602C56.1515 12.7492 49.5048 10.2775 42.2817 10.2198H41.7375C25.1078 10.3607 11.5197 23.27 10.3159 39.6307C10.2583 40.4119 10.2327 41.1996 10.2327 41.9936C10.2327 45.4066 10.7705 48.7044 11.7695 51.7844C11.8527 52.047 11.9424 52.3095 12.0384 52.572C12.9029 55.031 14.0683 57.349 15.477 59.4877C21.1633 68.0939 30.9221 73.7673 42.0064 73.7673C45.5859 73.7673 49.0181 73.1782 52.2262 72.0833L50.1772 69.08L39.2914 53.1419L38.9392 52.6297C38.7599 52.3543 38.5806 52.0726 38.4141 51.7908C36.6403 48.8004 35.6286 45.3106 35.6286 41.5838C35.6286 35.4749 38.3565 30.0064 42.6596 26.3244L42.6659 26.3308C40.2647 28.412 38.7406 31.4856 38.7406 34.9178C38.7406 39.778 41.7951 43.921 46.0854 45.5475C46.2134 45.5859 46.3351 45.6243 46.4568 45.682C46.4632 45.6884 46.4696 45.6884 46.476 45.6884C47.8143 46.2583 48.7492 47.5774 48.7492 49.127C48.7492 49.8826 48.5251 50.5934 48.1345 51.1761L48.1473 51.1825C47.7439 51.778 47.5069 52.4952 47.5069 53.27C47.5069 54.8196 48.4482 56.1451 49.7865 56.7086L49.7801 56.7151L56.0939 59.4493L56.1067 59.4557L56.3564 59.5646C56.7727 59.7311 57.2337 59.8207 57.714 59.8207C59.7823 59.8207 61.4536 58.1494 61.4536 56.0875V34.9242V28.2903C61.4536 26.2284 63.1249 24.5507 65.1932 24.5507C65.8911 24.5507 66.5379 24.7428 67.0886 25.0694C67.2807 25.1782 67.46 25.3063 67.6201 25.4472C68.715 26.2604 69.7268 27.1825 70.6425 28.2006C68.5037 23.7503 65.3404 19.8634 61.46 16.8602Z" fill="white"></path>
  <path d="M42 0C18.8389 0 0 18.8388 0 42C0 65.1612 18.8389 84 42 84C65.1612 84 84 65.1612 84 42C84 18.8388 65.1548 0 42 0ZM42 78.8773C21.6692 78.8773 5.12273 62.3373 5.12273 42C5.12273 21.6628 21.6628 5.12273 42 5.12273C62.3373 5.12273 78.8773 21.6628 78.8773 42C78.8773 62.3373 62.3309 78.8773 42 78.8773Z" fill="#CD7F58"></path>
</svg>
