<?xml version="1.0" encoding="UTF-8"?>
<svg xmlns="http://www.w3.org/2000/svg" width="56" height="162" viewBox="0 0 56 162" fill="none">
  <path d="M23.569 10.7505L23.569 6.73125C23.569 6.2639 23.8247 5.95234 24.336 5.79655L45.8131 0.422032C46.3245 0.297405 46.5802 0.484345 46.5802 0.982851L46.5802 4.34777C46.5802 4.90859 46.3245 5.22016 45.8131 5.28247L28.9214 8.66139C28.8263 8.68042 28.7578 8.76396 28.7578 8.86098V8.86098C28.7578 8.95501 28.8222 9.0368 28.9136 9.05884L45.8131 13.1339C46.3245 13.2274 46.5802 13.5234 46.5802 14.0219L46.5802 17.1064C46.5802 17.6361 46.3245 17.9632 45.8131 18.0879L28.9142 22.0702C28.8225 22.0918 28.7578 22.1736 28.7578 22.2678V22.2678C28.7578 22.3646 28.8261 22.4479 28.921 22.4669L45.8131 25.8459C46.3245 25.9393 46.5802 26.2509 46.5802 26.7806L46.5802 30.1455C46.5802 30.6751 46.3245 30.8621 45.8131 30.7063L24.336 25.3318C23.8247 25.2383 23.569 24.9267 23.569 24.3971L23.569 20.3779C23.569 19.8794 23.8247 19.5678 24.336 19.4432L40.9161 15.74C41.0093 15.7192 41.0755 15.6365 41.0755 15.541V15.541C41.0755 15.4454 41.009 15.3626 40.9156 15.3419L24.336 11.6852C23.8247 11.5917 23.569 11.2801 23.569 10.7505Z" fill="white"></path>
  <path d="M23.569 51.3594L23.569 41.2415C23.569 38.9306 24.1856 37.135 25.4189 35.8546C26.6522 34.6055 28.3667 33.981 30.5626 33.981L39.5866 33.981C41.8125 33.981 43.527 34.6055 44.7302 35.8546C45.9635 37.135 46.5802 38.9306 46.5802 41.2415L46.5802 45.0825C46.5802 47.3934 45.9635 49.189 44.7302 50.4694C43.527 51.7497 41.8125 52.3899 39.5866 52.3899L33.8563 52.3899C33.3149 52.3899 33.0442 52.1089 33.0442 51.5468L33.0442 38.9931C33.0442 38.6496 32.8938 38.4778 32.593 38.4778L30.6528 38.4778C28.457 38.4778 27.3591 39.6176 27.3591 41.8973L27.3591 51.3594C27.3591 51.9215 27.0883 52.2025 26.5469 52.2025L24.2909 52.2025C23.8096 52.2025 23.569 51.9215 23.569 51.3594ZM36.1123 38.9931L36.1123 47.3778C36.1123 47.6901 36.2627 47.8462 36.5635 47.8462L39.4512 47.8462C40.5942 47.8462 41.4214 47.5808 41.9328 47.0499C42.4742 46.519 42.745 45.6603 42.745 44.4736L42.745 41.8973C42.745 40.7106 42.4742 39.8518 41.9328 39.321C41.4214 38.7901 40.5942 38.5246 39.4512 38.5246L36.5635 38.5246C36.2627 38.5246 36.1123 38.6808 36.1123 38.9931Z" fill="white"></path>
  <path d="M23.569 88.6576L23.569 80.0216C23.569 79.4896 23.8247 79.2237 24.336 79.2237L26.5469 79.2237C27.0282 79.2237 27.2688 79.4896 27.2688 80.0216L27.2688 87.9067C27.2688 89.9405 27.9456 90.9574 29.2992 90.9574L29.8406 90.9574C31.0438 90.9574 31.9613 90.2221 32.593 88.7515L34.9392 83.6356C35.6611 82.0398 36.4582 80.8821 37.3306 80.1624C38.2029 79.4427 39.3459 79.0829 40.7597 79.0829C44.64 79.0829 46.5802 81.3201 46.5802 85.7946L46.5802 93.5858C46.5802 94.0864 46.3245 94.3368 45.8131 94.3368L43.6022 94.3368C43.0909 94.3368 42.8352 94.0864 42.8352 93.5858L42.8352 86.7333C42.8352 85.7946 42.6698 85.0749 42.3389 84.5743C42.0381 84.0736 41.632 83.8233 41.1206 83.8233L40.6243 83.8233C39.6618 83.8233 38.8195 84.6212 38.0976 86.217L35.5709 91.3799C34.879 93.0069 34.0518 94.1177 33.0893 94.7122C32.1568 95.338 30.9386 95.6509 29.4346 95.6509C25.5242 95.6509 23.569 93.3198 23.569 88.6576Z" fill="white"></path>
  <path d="M23.569 111.781L23.569 108.864C23.569 108.339 23.8247 108.077 24.336 108.077L45.8131 108.077C46.3245 108.077 46.5802 108.339 46.5802 108.864L46.5802 111.781C46.5802 112.306 46.3245 112.568 45.8131 112.568L44.1888 112.568C45.783 113.463 46.5802 115.284 46.5802 117.661L46.5802 119.189C46.5802 121.874 45.5875 123.788 43.6022 124.93C44.5648 125.424 45.3018 126.18 45.8131 127.198C46.3245 128.217 46.5802 129.313 46.5802 130.486L46.5802 131.967C46.5802 134.22 45.9635 135.933 44.7302 137.106C43.527 138.31 41.8125 138.912 39.5866 138.912L24.336 138.912C23.8247 138.912 23.569 138.65 23.569 138.125L23.569 135.162C23.569 134.637 23.8247 134.375 24.336 134.375L39.4061 134.375C41.632 134.375 42.745 133.264 42.745 131.041L42.745 129.699C42.745 127.137 41.4365 125.856 38.8195 125.856L24.336 125.856C23.8247 125.856 23.569 125.578 23.569 125.022L23.569 122.106C23.569 121.581 23.8247 121.318 24.336 121.318L39.4061 121.318C41.632 121.318 42.745 120.207 42.745 117.985L42.745 116.364C42.745 113.833 41.4666 112.568 38.9098 112.568L24.336 112.568C23.8247 112.568 23.569 112.306 23.569 111.781Z" fill="white"></path>
  <path d="M23.569 152.51L23.569 150.702C23.569 148.414 24.1856 146.636 25.4189 145.369C26.6522 144.132 28.3667 143.514 30.5626 143.514L39.5866 143.514C41.8125 143.514 43.527 144.132 44.7302 145.369C45.9635 146.636 46.5802 148.414 46.5802 150.702L46.5802 161.088C46.5802 161.645 46.3245 161.923 45.8131 161.923L24.336 161.923C23.8247 161.923 23.569 161.645 23.569 161.088L23.569 158.167C23.569 157.642 23.8247 157.379 24.336 157.379L25.9603 157.379L25.9603 157.193C24.3661 156.451 23.569 154.89 23.569 152.51ZM31.2394 157.379L42.2938 157.379C42.5946 157.379 42.745 157.209 42.745 156.869L42.745 151.351C42.745 149.125 41.632 148.012 39.4061 148.012L30.743 148.012C28.5171 148.012 27.4042 149.125 27.4042 151.351L27.4042 153.577C27.4042 156.111 28.6826 157.379 31.2394 157.379Z" fill="white"></path>
  <path d="M50.8743 98.8726L55.0504 98.8726C55.5399 98.8726 55.7846 99.1256 55.7846 99.6317L55.7846 102.716C55.7846 103.222 55.5399 103.475 55.0504 103.475L50.8743 103.475C50.3542 103.475 50.0941 103.222 50.0941 102.716L50.0941 99.6317C50.0941 99.1256 50.3542 98.8726 50.8743 98.8726ZM24.3491 98.8726L46.1933 98.8726C46.7134 98.8726 46.9735 99.1256 46.9735 99.6317L46.9735 102.668C46.9735 103.206 46.7134 103.475 46.1933 103.475L24.3491 103.475C24.0432 103.475 23.829 103.412 23.7066 103.285C23.6148 103.19 23.569 103 23.569 102.716L23.569 99.6791C23.569 99.1414 23.829 98.8726 24.3491 98.8726Z" fill="white"></path>
  <path d="M27.4642 62.0615L27.4642 67.8818C27.4642 70.1349 28.5945 71.2614 30.8553 71.2614L39.8372 71.2614C42.0979 71.2614 43.2283 70.1349 43.2283 67.8818L43.2283 65.3941C43.2283 62.8281 41.9452 61.5452 39.3789 61.5452L27.9683 61.5452C27.6322 61.5452 27.4642 61.7173 27.4642 62.0615ZM24.348 56.9922L55.0056 56.9922C55.5249 56.9922 55.7846 57.2581 55.7846 57.7901L55.7846 60.7472C55.7846 61.2792 55.5249 61.5452 55.0056 61.5452L44.6489 61.5452C46.2986 62.3275 47.1235 64.0955 47.1235 66.4737L47.1235 68.539C47.1235 70.8546 46.4972 72.6539 45.2446 73.9369C44.0226 75.2198 42.2965 75.8613 40.0663 75.8613L30.672 75.8613C28.4418 75.8613 26.7004 75.2198 25.4478 73.9369C24.1952 72.6539 23.569 70.8546 23.569 68.539L23.569 57.7901C23.569 57.2581 23.8286 56.9922 24.348 56.9922Z" fill="white"></path>
  <path d="M3.43729 3.08207C3.43729 3.47659 3.38681 3.75643 3.28584 3.92158C3.19404 4.08673 3.01046 4.22435 2.73508 4.33445L0.353064 5.32534L0.353064 6.59148L2.92784 5.50425C3.13897 5.42168 3.2996 5.33452 3.40976 5.24277C3.51991 5.16019 3.6117 5.04092 3.68513 4.88495C3.84118 5.43544 4.12574 5.85749 4.5388 6.15109C4.96105 6.45386 5.48886 6.60524 6.12223 6.60524C6.94836 6.60524 7.5955 6.39422 8.06364 5.97218C8.54096 5.55013 8.77962 4.9033 8.77962 4.03168L8.77962 0.384644L0.353064 0.384643L0.353064 1.59573L3.43729 1.59573L3.43729 3.08207ZM7.71942 3.85277C7.71942 4.88953 7.18702 5.40792 6.12223 5.40792C5.03907 5.40792 4.4975 4.84366 4.4975 3.71514L4.4975 1.59573L7.71942 1.59573L7.71942 3.85277Z" fill="white"></path>
  <path d="M1.34442 14.0226L1.34442 9.6462L4.07066 9.6462L4.07066 13.5547L5.07579 13.5547L5.07579 9.6462L7.78826 9.6462L7.78826 14.0226L8.77962 14.0226L8.77962 8.43511L0.353064 8.43511L0.353063 14.0226L1.34442 14.0226Z" fill="white"></path>
  <path d="M0.215375 17.9401C0.215375 18.9768 0.417317 19.7613 0.821205 20.2934C1.22509 20.8348 1.81256 21.1054 2.58362 21.1054C3.03341 21.1054 3.41435 21.0274 3.72644 20.8715C4.03853 20.7247 4.30473 20.4632 4.52503 20.087C4.74534 19.72 4.93351 19.2108 5.08956 18.5594C5.21807 18.0181 5.34658 17.6006 5.47509 17.307C5.6036 17.0134 5.75047 16.8024 5.91569 16.6739C6.0901 16.5547 6.30581 16.495 6.56283 16.495C7.03097 16.495 7.37519 16.6648 7.5955 17.0042C7.8158 17.3529 7.92595 17.8713 7.92595 18.5594C7.92595 19.3117 7.80203 19.9999 7.55419 20.6237L8.57309 20.6237C8.66488 20.3852 8.7429 20.0457 8.80716 19.6053C8.87141 19.1741 8.90354 18.7521 8.90354 18.3392C8.90354 17.3116 8.7016 16.5409 8.29771 16.0271C7.89382 15.5225 7.31553 15.2702 6.56283 15.2702C6.13141 15.2702 5.77341 15.3436 5.48886 15.4904C5.2043 15.6463 4.96105 15.8941 4.75911 16.2335C4.55716 16.5822 4.37358 17.0593 4.20835 17.6648C4.01559 18.4722 3.80446 19.0411 3.57498 19.3714C3.3455 19.7108 3.01505 19.8806 2.58362 19.8806C1.65652 19.8806 1.19296 19.197 1.19296 17.83C1.19296 17.0593 1.34901 16.2657 1.66111 15.4491L0.64221 15.4491C0.357653 16.1005 0.215375 16.9308 0.215375 17.9401Z" fill="white"></path>
  <path d="M0.215375 26.3363C0.215375 27.4557 0.490752 28.3135 1.04151 28.9099C1.60144 29.5063 2.40922 29.8044 3.46483 29.8044L8.77962 29.8044L8.77962 28.5934L3.50614 28.5934C2.79016 28.5934 2.24858 28.4007 1.88141 28.0153C1.52342 27.63 1.34442 27.0703 1.34442 26.3363C1.34442 25.6115 1.52342 25.0518 1.88141 24.6573C2.24858 24.2628 2.79016 24.0655 3.50614 24.0655L8.77962 24.0655L8.77962 22.8682L3.46483 22.8682C2.40922 22.8682 1.60144 23.1664 1.04151 23.7628C0.490752 24.3591 0.215375 25.217 0.215375 26.3363Z" fill="white"></path>
  <path d="M1.38573 37.2703L1.38573 33.0315L8.77962 33.0315L8.77962 31.8204L0.353063 31.8204L0.353062 37.2703L1.38573 37.2703Z" fill="white"></path>
  <path d="M7.78826 40.4337L7.78826 43.0899L8.77962 43.0899L8.77962 36.5803L7.78826 36.5803L7.78826 39.2364L0.353062 39.2364L0.353062 40.4337L7.78826 40.4337Z" fill="white"></path>
  <path d="M8.77962 49.5525L8.77962 48.3414L0.353062 48.3414L0.353062 49.5525L8.77962 49.5525Z" fill="white"></path>
  <path d="M0.215373 54.0564C0.215373 55.0931 0.417316 55.8776 0.821203 56.4097C1.22509 56.9511 1.81256 57.2217 2.58362 57.2217C3.0334 57.2217 3.41434 57.1437 3.72644 56.9878C4.03853 56.841 4.30473 56.5795 4.52503 56.2033C4.74534 55.8363 4.93351 55.3271 5.08956 54.6757C5.21807 54.1344 5.34658 53.7169 5.47509 53.4233C5.6036 53.1297 5.75046 52.9187 5.91569 52.7902C6.0901 52.671 6.30581 52.6113 6.56283 52.6113C7.03097 52.6113 7.37519 52.7811 7.59549 53.1205C7.8158 53.4692 7.92595 53.9876 7.92595 54.6757C7.92595 55.428 7.80203 56.1161 7.55419 56.74L8.57309 56.74C8.66488 56.5015 8.7429 56.162 8.80716 55.7216C8.87141 55.2904 8.90354 54.8684 8.90354 54.4555C8.90354 53.4279 8.7016 52.6572 8.29771 52.1434C7.89382 51.6388 7.31553 51.3865 6.56283 51.3865C6.1314 51.3865 5.77341 51.4599 5.48886 51.6067C5.2043 51.7626 4.96105 52.0104 4.7591 52.3498C4.55716 52.6985 4.37358 53.1756 4.20835 53.7811C4.01558 54.5885 3.80446 55.1574 3.57498 55.4877C3.3455 55.8271 3.01505 55.9969 2.58362 55.9969C1.65652 55.9969 1.19296 55.3133 1.19296 53.9463C1.19296 53.1756 1.34901 52.382 1.66111 51.5654L0.642208 51.5654C0.357652 52.2168 0.215373 53.0471 0.215373 54.0564Z" fill="white"></path>
  <path d="M8.77962 64.3164L8.77962 63.1053L0.353061 63.1053L0.353061 64.3164L8.77962 64.3164Z" fill="white"></path>
  <path d="M6.65921 67.6091L1.81256 69.9487L1.81256 70.7194L6.65921 73.059L0.353061 73.059L0.353061 74.2564L8.77962 74.2564L8.77962 72.9902L3.20322 70.3479L8.77962 67.6642L8.77962 66.398L0.353061 66.398L0.353061 67.6091L6.65921 67.6091Z" fill="white"></path>
  <path d="M3.25829 79.812C3.25829 80.6561 3.50155 81.3213 3.98805 81.8075C4.48373 82.303 5.14922 82.5507 5.98453 82.5507C6.8382 82.5507 7.51747 82.3259 8.02233 81.8763C8.52719 81.4359 8.77962 80.7662 8.77962 79.867L8.77962 76.3301L0.353061 76.3301L0.353061 77.5412L3.2583 77.5412L3.25829 79.812ZM7.71941 79.6744C7.71941 80.2248 7.57255 80.6423 7.27881 80.9267C6.98507 81.2112 6.55365 81.3534 5.98453 81.3534C5.46132 81.3534 5.04825 81.202 4.74533 80.8992C4.4516 80.5964 4.30473 80.1652 4.30473 79.6055L4.30473 77.5412L7.71941 77.5412L7.71941 79.6744Z" fill="white"></path>
  <path d="M0.215372 87.6897C0.215372 88.9558 0.577952 89.9054 1.30311 90.5385C2.03745 91.1715 3.10684 91.4881 4.51126 91.4881C6.03502 91.4881 7.14571 91.1761 7.84333 90.5522C8.55014 89.9375 8.90354 88.9833 8.90354 87.6897C8.90354 86.396 8.55014 85.4372 7.84333 84.8133C7.14571 84.1894 6.03502 83.8775 4.51126 83.8775C3.10684 83.8775 2.03745 84.194 1.30311 84.8271C0.577952 85.4693 0.215372 86.4235 0.215372 87.6897ZM1.33065 87.6897C1.33065 86.818 1.59226 86.1666 2.11548 85.7354C2.64787 85.3133 3.44647 85.1023 4.51126 85.1023C5.69539 85.1023 6.53988 85.3088 7.04474 85.7216C7.5496 86.1345 7.80203 86.7905 7.80203 87.6897C7.80203 88.5796 7.5496 89.231 7.04474 89.6439C6.53988 90.066 5.69539 90.277 4.51126 90.277C2.39085 90.277 1.33065 89.4145 1.33065 87.6897Z" fill="white"></path>
  <path d="M3.43729 96.002C3.43729 96.3966 3.3868 96.6764 3.28583 96.8415C3.19404 97.0067 3.01045 97.1443 2.73508 97.2544L0.35306 98.2453L0.35306 99.5114L2.92784 98.4242C3.13896 98.3416 3.2996 98.2545 3.40975 98.1627C3.5199 98.0801 3.6117 97.9609 3.68513 97.8049C3.84118 98.3554 4.12573 98.7774 4.5388 99.071C4.96105 99.3738 5.48885 99.5252 6.12222 99.5252C6.94835 99.5252 7.59549 99.3142 8.06363 98.8921C8.54096 98.4701 8.77962 97.8233 8.77962 96.9516L8.77962 93.3046L0.35306 93.3046L0.35306 94.5157L3.43729 94.5157L3.43729 96.002ZM7.71941 96.7727C7.71941 97.8095 7.18702 98.3279 6.12222 98.3279C5.03907 98.3279 4.49749 97.7636 4.49749 96.6351L4.49749 94.5157L7.71941 94.5157L7.71941 96.7727Z" fill="white"></path>
  <path d="M7.78826 104.727L7.78826 107.383L8.77962 107.383L8.77962 100.873L7.78826 100.873L7.78826 103.53L0.353059 103.53L0.353059 104.727L7.78826 104.727Z" fill="white"></path>
  <path d="M2.62492 109.623L2.62492 113.036L0.353059 113.862L0.353059 115.114L8.77962 112.018L8.77962 110.642L0.353059 107.545L0.353059 108.797L2.62492 109.623ZM3.56121 112.844L3.56121 109.802L7.59549 111.33L3.56121 112.844Z" fill="white"></path>
  <path d="M6.72805 118.143L0.353059 122.588L0.353059 123.662L8.77962 123.662L8.77962 122.451L2.40462 122.451L8.77962 118.005L8.77962 116.932L0.353059 116.932L0.353059 118.143L6.72805 118.143Z" fill="white"></path>
  <path d="M7.78826 129.093L7.78826 131.749L8.77962 131.749L8.77962 125.24L7.78826 125.24L7.78826 127.896L0.353058 127.896L0.353058 129.093L7.78826 129.093Z" fill="white"></path>
  <path d="M2.99668 134.935C3.92379 134.852 4.65813 134.797 5.19971 134.77C5.74128 134.742 6.42055 134.728 7.2375 134.728L9.26153 134.728L9.26153 135.939L7.2375 135.939C6.39301 135.939 5.69539 135.926 5.14463 135.898C4.59387 135.871 3.87789 135.82 2.99668 135.747L2.99668 134.935ZM0.311752 135.32C0.311752 135.063 0.371416 134.875 0.490746 134.756C0.619256 134.637 0.825789 134.577 1.11035 134.577C1.38572 134.577 1.58308 134.637 1.70241 134.756C1.82174 134.875 1.8814 135.063 1.8814 135.32C1.8814 135.577 1.82174 135.765 1.70241 135.884C1.58308 136.013 1.38572 136.077 1.11035 136.077C0.825789 136.077 0.619256 136.013 0.490746 135.884C0.371416 135.765 0.311752 135.577 0.311752 135.32Z" fill="white"></path>
</svg>
